<svg xmlns="http://www.w3.org/2000/svg" viewBox="240 380 700 595" width="700" height="595"><g transform=" translate(0.000000,1600.000000) scale(0.100000,-0.100000)" fill="#9A9A9A" stroke="none"><path d="M7161 8716 c-8 -10 -10 -241 -9 -852 l3 -839 175 0 175 0 3 138 c2
89 -1 137 -8 137 -6 0 -10 -48 -10 -130 l0 -130 -160 0 -160 0 0 829 c0 543 3
832 10 836 12 8 13 25 1 25 -5 0 -14 -6 -20 -14z"/><path d="M6501 8236 c-8 -9 -10 -178 -9 -612 l3 -599 168 -3 c109 -2 167 1
167 8 0 6 -57 10 -160 10 l-160 0 0 590 c0 516 2 591 15 596 8 4 15 10 15 15
0 14 -26 11 -39 -5z"/><path d="M5160 7341 c0 -242 3 -301 14 -310 17 -15 338 -11 343 4 2 6 -57 10
-164 10 l-168 0 -3 298 c-1 186 -6 297 -12 297 -6 0 -10 -109 -10 -299z"/><path d="M4835 7278 l0 -233 -157 -3 -158 -3 0 31 c0 38 -16 39 -23 3 -10 -51
1 -54 187 -51 l171 3 0 239 c0 151 -4 241 -10 243 -6 2 -10 -79 -10 -229z"/><path d="M11186 7374 c-3 -9 -4 -20 0 -25 8 -13 1534 -12 1534 1 0 7 -258 10
-755 10 -664 0 -755 2 -755 15 0 20 -16 19 -24 -1z"/></g><g transform=" translate(0.000000,1600.000000) scale(0.100000,-0.100000)" fill="#9A9A9A" stroke="none"><path d="M12044 8633 c-43 -65 -93 -138 -111 -163 -18 -25 -64 -92 -102 -150
-118 -180 -205 -312 -268 -405 -102 -151 -223 -336 -223 -340 0 -3 -29 -47
-65 -99 -36 -52 -65 -98 -65 -104 0 -9 1709 -22 1788 -14 17 3 32 9 32 16 0
10 -56 99 -97 156 -11 14 -50 74 -88 133 -39 60 -125 192 -192 294 -68 103
-123 188 -123 189 0 1 -49 76 -108 166 -60 90 -126 190 -147 223 -96 150 -140
215 -146 215 -4 0 -42 -53 -85 -117z"/><path d="M7176 8701 c-3 -4 -6 -379 -6 -832 l-1 -824 163 0 163 0 3 785 c2
432 -1 805 -5 829 l-8 43 -152 4 c-84 3 -154 0 -157 -5z"/><path d="M6516 8222 c-3 -5 -6 -272 -6 -593 l-1 -584 161 0 162 0 1 590 1 590
-156 3 c-86 1 -159 -2 -162 -6z"/><path d="M5335 7920 l-150 -5 -5 -88 c-3 -48 -3 -243 0 -435 l5 -347 160 0
160 0 0 439 c0 286 -4 440 -10 440 -5 1 -77 -1 -160 -4z"/><path d="M4515 7488 c-3 -7 -4 -110 -2 -228 l2 -215 160 0 160 0 0 225 0 225
-158 3 c-120 2 -159 0 -162 -10z"/></g><g transform=" translate(0.000000,1600.000000) scale(0.100000,-0.100000)" fill="#4A4A4A" stroke="none"><path d="M3160 11550 c0 -5 -8 -10 -19 -10 -44 0 -43 84 -42 -2217 0 -1203 1
-2202 1 -2219 0 -17 9 -42 21 -55 20 -23 25 -24 202 -27 214 -5 263 4 271 46
2 15 4 835 2 1822 -1 987 0 1814 2 1838 6 55 27 55 113 2 62 -39 209 -124 286
-165 21 -11 58 -34 83 -50 25 -17 54 -35 65 -42 98 -57 277 -164 305 -181 19
-12 57 -33 83 -46 26 -13 57 -32 68 -42 18 -16 85 -55 229 -132 19 -10 84 -49
144 -85 60 -37 112 -67 117 -67 5 0 28 -13 51 -29 63 -42 230 -138 260 -150
14 -5 29 -14 32 -20 4 -6 24 -18 44 -28 20 -10 75 -41 122 -69 153 -91 180
-104 218 -104 21 0 42 4 48 9 5 5 30 21 57 35 26 14 68 38 95 52 26 14 54 32
62 38 8 7 46 30 84 52 38 21 80 47 95 56 14 9 62 36 106 59 44 23 114 64 155
91 41 27 100 60 130 75 30 14 62 32 71 40 9 8 32 22 50 32 19 10 68 38 109 63
41 25 95 57 120 72 56 33 62 36 183 114 54 35 117 72 140 82 23 11 56 28 72
37 17 10 57 33 90 52 33 19 73 45 89 58 15 13 42 30 60 38 17 8 45 24 61 35
17 11 39 24 51 29 11 5 33 20 50 34 16 13 40 28 54 32 14 4 36 16 49 26 31 25
81 25 81 2 1 -10 2 -839 3 -1843 2 -1603 4 -1828 17 -1848 l15 -24 216 4 c164
2 220 6 232 17 16 12 17 181 17 2235 0 1325 -4 2227 -9 2235 -17 27 -111 20
-157 -10 -115 -77 -167 -109 -176 -109 -5 0 -25 -12 -44 -26 -39 -30 -75 -51
-149 -87 -27 -13 -56 -32 -64 -41 -8 -9 -31 -25 -50 -35 -153 -78 -249 -134
-377 -218 -35 -24 -68 -43 -74 -43 -5 0 -17 -8 -27 -19 -10 -10 -29 -22 -43
-26 -14 -4 -55 -27 -92 -51 -36 -24 -90 -56 -120 -72 -106 -58 -308 -176 -388
-228 -64 -41 -170 -104 -175 -104 -3 0 -40 -24 -83 -54 -43 -29 -89 -57 -103
-61 -13 -4 -45 -23 -70 -41 -26 -19 -50 -34 -54 -34 -3 0 -40 -20 -81 -45 -40
-25 -76 -45 -80 -45 -3 0 -29 -15 -57 -34 -112 -72 -173 -106 -192 -106 -22 0
-104 41 -150 75 -16 13 -57 37 -90 54 -33 18 -78 43 -100 56 -22 13 -47 27
-55 31 -8 4 -37 21 -65 39 -42 27 -120 74 -220 132 -11 6 -34 18 -52 27 -17 8
-75 42 -128 75 -54 34 -103 61 -110 61 -8 0 -27 11 -43 25 -17 14 -33 25 -37
25 -3 0 -26 14 -50 30 -24 17 -46 30 -50 30 -4 0 -27 15 -53 32 -50 35 -102
65 -168 97 -22 11 -51 29 -65 39 -13 10 -46 31 -73 48 -27 16 -60 37 -75 46
-14 9 -53 31 -86 49 -33 17 -73 41 -89 52 -17 12 -44 28 -60 37 -17 9 -49 27
-71 39 -22 13 -65 37 -95 54 -30 17 -71 42 -90 56 -19 14 -48 33 -65 42 -121
66 -152 83 -166 95 -8 8 -20 14 -26 14 -5 0 -29 14 -51 30 -23 17 -44 30 -47
30 -3 0 -35 18 -71 40 -36 22 -74 40 -83 40 -10 0 -26 9 -36 20 -20 22 -35 26
-35 10z"/><path d="M12180 11530 c0 -5 -12 -10 -28 -10 -23 0 -35 -12 -80 -78 -28 -43
-52 -82 -52 -85 0 -3 -24 -42 -52 -86 -29 -43 -75 -115 -103 -160 -27 -44 -67
-103 -87 -132 -21 -28 -38 -55 -38 -61 0 -5 -9 -22 -20 -36 -26 -34 -173 -259
-189 -290 -6 -12 -33 -52 -59 -88 -26 -36 -51 -73 -57 -82 -48 -79 -83 -135
-114 -181 -20 -30 -40 -62 -46 -71 -41 -67 -76 -118 -94 -136 -11 -11 -26 -34
-33 -50 -7 -17 -65 -108 -129 -204 -64 -96 -128 -196 -143 -222 -15 -27 -31
-48 -36 -48 -6 0 -10 -5 -10 -10 0 -6 -5 -16 -11 -23 -5 -7 -27 -39 -48 -72
-99 -156 -155 -240 -161 -245 -4 -3 -17 -23 -28 -45 -11 -22 -29 -49 -40 -61
-10 -11 -31 -42 -46 -69 -15 -26 -38 -62 -50 -79 -13 -17 -36 -53 -52 -81 -15
-27 -38 -63 -51 -78 -12 -15 -30 -43 -38 -62 -9 -18 -25 -41 -36 -51 -10 -9
-19 -23 -19 -30 0 -7 -12 -26 -26 -41 -14 -15 -32 -40 -40 -55 -8 -16 -41 -66
-74 -113 -33 -47 -69 -102 -80 -123 -11 -20 -43 -68 -70 -107 -54 -74 -77
-109 -148 -220 -38 -58 -104 -160 -205 -315 -9 -14 -32 -47 -52 -75 -129 -182
-145 -215 -105 -215 15 0 20 -7 20 -25 0 -29 -39 -25 331 -27 241 -1 242 -1
290 72 12 19 40 60 61 92 21 31 38 59 38 63 0 4 18 32 40 62 22 31 40 62 40
68 0 7 9 20 20 30 11 10 34 41 52 69 18 28 35 53 39 56 3 3 12 16 19 30 13 25
47 79 116 183 22 32 51 79 66 105 15 26 36 58 48 71 12 13 33 47 47 75 14 28
29 53 32 56 9 7 176 259 191 290 7 14 16 27 19 30 7 6 98 143 126 191 11 19
31 52 45 75 14 22 34 55 45 73 11 18 35 52 52 74 18 23 33 46 33 50 0 4 18 32
40 61 22 29 40 55 40 58 0 3 33 55 73 115 39 60 97 149 127 197 30 48 79 122
107 164 29 43 69 104 89 137 21 33 45 69 55 80 9 11 24 36 32 56 8 19 28 51
44 70 16 19 40 53 53 77 13 23 27 42 31 42 4 0 24 30 45 68 20 37 51 85 69
107 18 22 40 56 50 75 9 19 26 45 38 57 11 12 25 33 31 45 22 44 51 35 92 -29
20 -32 68 -104 106 -161 37 -56 68 -107 68 -112 0 -6 5 -10 10 -10 6 0 10 -5
10 -11 0 -6 14 -28 30 -49 17 -21 30 -41 30 -46 0 -4 18 -31 40 -60 22 -29 40
-58 40 -63 0 -6 14 -26 30 -44 17 -19 30 -38 30 -42 0 -4 17 -33 38 -63 20
-30 41 -62 47 -71 5 -9 26 -39 46 -66 20 -28 44 -66 54 -85 10 -19 60 -96 110
-170 51 -75 107 -161 124 -191 18 -30 54 -85 82 -124 27 -38 60 -91 74 -117
14 -27 29 -48 34 -48 6 0 12 -9 16 -19 6 -21 62 -109 142 -225 27 -38 59 -91
73 -116 14 -25 33 -57 43 -71 51 -70 167 -254 167 -266 0 -7 4 -13 9 -13 5 0
12 -8 15 -17 4 -10 20 -33 36 -52 17 -18 30 -38 30 -44 0 -13 146 -249 171
-276 10 -11 19 -22 19 -24 0 -14 82 -141 104 -162 14 -13 26 -33 26 -43 0 -11
16 -40 35 -65 19 -25 35 -51 35 -56 0 -6 4 -11 8 -11 4 0 24 -30 44 -68 46
-84 82 -119 133 -129 22 -4 151 -6 287 -3 294 6 296 7 258 87 -12 26 -37 71
-56 100 -19 28 -34 55 -34 58 0 4 -12 21 -26 39 -14 17 -61 87 -106 156 -44
69 -99 154 -123 190 -23 36 -55 87 -70 113 -26 46 -132 209 -280 433 -38 58
-79 120 -90 138 -11 19 -38 59 -60 90 -22 32 -46 69 -54 84 -7 15 -46 77 -87
139 -41 61 -74 116 -74 122 0 5 -6 14 -14 18 -7 4 -21 24 -31 43 -10 19 -31
50 -47 69 -16 18 -34 44 -39 58 -9 24 -114 191 -176 281 -18 26 -49 75 -69
110 -19 34 -39 62 -44 62 -4 0 -10 8 -14 18 -7 20 -53 93 -121 194 -27 40 -55
85 -61 99 -6 14 -26 42 -43 61 -17 20 -31 39 -31 43 0 3 -13 26 -30 50 -16 24
-30 46 -30 50 0 3 -30 52 -67 109 -79 118 -82 124 -123 192 -16 29 -37 57 -45
64 -8 7 -24 33 -35 58 -12 25 -32 60 -45 78 -14 18 -25 35 -25 39 0 3 -16 27
-35 52 -19 25 -35 50 -35 56 0 6 -8 19 -17 30 -10 10 -27 36 -38 58 -17 34
-117 193 -210 336 -16 26 -34 54 -40 62 -5 9 -32 52 -59 96 -58 95 -106 143
-106 105z"/><path d="M15384 11432 c-30 -20 -35 -57 -37 -282 -2 -208 0 -231 16 -247 17
-17 68 -18 920 -21 561 -2 905 -6 911 -12 6 -6 10 -659 10 -1780 1 -1571 3
-1771 16 -1785 13 -12 55 -15 255 -16 296 -2 269 -4 291 29 18 26 19 91 24
1792 l5 1765 906 5 c748 4 909 7 922 19 15 12 17 43 17 256 0 233 -1 243 -21
261 -21 19 -72 19 -2123 21 -1155 2 -2106 -1 -2112 -5z"/><path d="M7480 9620 c-14 -4 -68 -15 -120 -24 -52 -10 -126 -23 -165 -31 -38
-7 -97 -17 -130 -20 -75 -9 -113 -28 -121 -62 -8 -30 28 -66 75 -78 102 -24
139 -75 85 -112 -15 -10 -38 -30 -53 -45 -14 -16 -29 -28 -34 -28 -10 0 -16
-5 -90 -70 -31 -27 -61 -50 -65 -50 -4 0 -44 -35 -89 -78 -45 -42 -113 -102
-150 -132 -37 -30 -88 -75 -113 -99 -25 -24 -59 -55 -77 -68 -18 -14 -35 -33
-38 -43 -3 -11 -15 -22 -27 -26 -11 -3 -35 -20 -52 -38 -18 -17 -81 -71 -140
-121 -102 -85 -112 -91 -169 -99 -118 -18 -198 -13 -239 12 -20 13 -72 35
-115 51 -100 35 -123 48 -123 69 0 28 -37 81 -72 103 -41 26 -167 22 -199 -7
-25 -23 -59 -95 -59 -126 0 -28 -41 -67 -155 -147 -91 -63 -161 -115 -208
-153 -55 -45 -85 -61 -104 -54 -8 3 -45 2 -81 -4 -86 -13 -136 -61 -147 -141
-8 -60 -30 -82 -185 -189 -12 -8 -57 -42 -100 -76 -83 -65 -111 -79 -178 -88
-72 -11 -107 -30 -126 -71 -41 -86 20 -188 112 -188 83 0 136 41 166 125 17
50 67 95 249 226 18 12 37 29 42 36 26 34 90 59 155 61 92 2 149 30 183 88 15
25 27 58 27 74 0 24 14 39 82 93 46 36 89 72 98 80 8 8 60 48 115 89 55 41
106 79 114 85 7 6 49 11 93 12 52 1 83 6 88 14 11 18 70 7 155 -30 39 -16 83
-30 99 -30 46 0 133 -55 141 -89 3 -16 21 -45 38 -66 94 -107 287 -30 287 115
0 25 10 38 62 78 34 26 84 67 111 92 95 87 111 100 119 100 5 0 59 46 121 103
62 56 130 114 152 129 22 15 54 40 71 55 17 15 45 39 63 53 18 13 43 33 56 45
38 34 109 95 120 103 41 30 136 106 165 131 41 36 84 48 102 29 7 -7 25 -35
40 -63 53 -99 107 -60 167 120 22 66 53 153 70 194 17 41 34 91 37 111 6 34 4
38 -20 44 -14 3 -26 13 -26 21 0 17 -47 19 -90 5z"/><path d="M5875 7780 c-11 -4 -30 -18 -42 -29 -22 -21 -23 -29 -24 -204 0 -100
-1 -243 -2 -317 -1 -102 2 -142 13 -165 l15 -30 159 0 c144 0 159 2 172 20 11
15 14 81 14 350 l0 330 -25 28 c-25 27 -28 27 -143 26 -64 0 -126 -4 -137 -9z"/></g></svg>